<?xml version="1.0" encoding="utf-8"?><svg viewBox="0 0 241 54" xmlns="http://www.w3.org/2000/svg" xmlns:xlink="http://www.w3.org/1999/xlink"><style>:root>svg{display:none}:root>svg:target{display:block}</style><svg viewBox="0 0 32 32" id="circle-down" xmlns="http://www.w3.org/2000/svg"><path d="M32 16c0-8.837-7.163-16-16-16S0 7.163 0 16s7.163 16 16 16 16-7.163 16-16zM3 16C3 8.82 8.82 3 16 3s13 5.82 13 13-5.82 13-13 13S3 23.18 3 16z"/><path d="M9.914 11.086l-2.829 2.829 8.914 8.914 8.914-8.914-2.828-2.828-6.086 6.086z"/></svg><svg viewBox="0 0 32 32" id="facebook" xmlns="http://www.w3.org/2000/svg"><path d="M19 6h5V0h-5c-3.86 0-7 3.14-7 7v3H8v6h4v16h6V16h5l1-6h-6V7c0-.542.458-1 1-1z"/></svg><svg viewBox="0 0 32 32" id="instagram" xmlns="http://www.w3.org/2000/svg"><path d="M16 2.881c4.275 0 4.781.019 6.462.094 1.563.069 2.406.331 2.969.55a4.952 4.952 0 011.837 1.194 5.015 5.015 0 011.2 1.838c.219.563.481 1.412.55 2.969.075 1.688.094 2.194.094 6.463s-.019 4.781-.094 6.463c-.069 1.563-.331 2.406-.55 2.969a4.94 4.94 0 01-1.194 1.837 5.02 5.02 0 01-1.837 1.2c-.563.219-1.413.481-2.969.55-1.688.075-2.194.094-6.463.094s-4.781-.019-6.463-.094c-1.563-.069-2.406-.331-2.969-.55a4.952 4.952 0 01-1.838-1.194 5.02 5.02 0 01-1.2-1.837c-.219-.563-.481-1.413-.55-2.969-.075-1.688-.094-2.194-.094-6.463s.019-4.781.094-6.463c.069-1.563.331-2.406.55-2.969a4.964 4.964 0 011.194-1.838 5.015 5.015 0 011.838-1.2c.563-.219 1.412-.481 2.969-.55 1.681-.075 2.188-.094 6.463-.094zM16 0c-4.344 0-4.887.019-6.594.094-1.7.075-2.869.35-3.881.744-1.056.412-1.95.956-2.837 1.85a7.833 7.833 0 00-1.85 2.831C.444 6.538.169 7.7.094 9.4.019 11.113 0 11.656 0 16s.019 4.887.094 6.594c.075 1.7.35 2.869.744 3.881.413 1.056.956 1.95 1.85 2.837a7.82 7.82 0 002.831 1.844c1.019.394 2.181.669 3.881.744 1.706.075 2.25.094 6.594.094s4.888-.019 6.594-.094c1.7-.075 2.869-.35 3.881-.744 1.05-.406 1.944-.956 2.831-1.844s1.438-1.781 1.844-2.831c.394-1.019.669-2.181.744-3.881.075-1.706.094-2.25.094-6.594s-.019-4.887-.094-6.594c-.075-1.7-.35-2.869-.744-3.881a7.506 7.506 0 00-1.831-2.844A7.82 7.82 0 0026.482.843C25.463.449 24.301.174 22.601.099c-1.712-.081-2.256-.1-6.6-.1z"/><path d="M16 7.781c-4.537 0-8.219 3.681-8.219 8.219s3.681 8.219 8.219 8.219 8.219-3.681 8.219-8.219A8.221 8.221 0 0016 7.781zm0 13.55a5.331 5.331 0 110-10.663 5.331 5.331 0 010 10.663zM26.462 7.456a1.919 1.919 0 11-3.838 0 1.919 1.919 0 013.838 0z"/></svg><svg viewBox="0 0 24 24" id="keyboard_arrow_down" xmlns="http://www.w3.org/2000/svg"><path d="M7.406 8.578L12 13.172l4.594-4.594L18 9.984l-6 6-6-6z"/></svg><svg viewBox="0 0 32 32" id="location" xmlns="http://www.w3.org/2000/svg"><path d="M16 0C10.477 0 6 4.477 6 10c0 10 10 22 10 22s10-12 10-22c0-5.523-4.477-10-10-10zm0 16a6 6 0 110-12 6 6 0 010 12z"/></svg><svg viewBox="0 0 241 54" id="logo" xmlns="http://www.w3.org/2000/svg"><path fill-rule="evenodd" fill="#FFF" d="M238.639 43.629h-1.459v2.139h-.679v-6.061h2.25c1.356 0 2.249.727 2.249 1.922v.017c0 1.308-1.082 1.983-2.361 1.983zm1.674-1.974c0-.867-.644-1.317-1.614-1.317h-1.519v2.667h1.485c.995 0 1.648-.537 1.648-1.334v-.016zm-8.866-11.437c-5.459 0-9.502-4.184-9.502-9.407v-.052c0-5.224 4.094-9.459 9.553-9.459 5.459 0 9.502 4.183 9.502 9.407v.052c0 5.223-4.095 9.459-9.553 9.459zm4.549-9.459c0-2.625-1.845-4.912-4.549-4.912-2.679 0-4.473 2.235-4.473 4.86v.052c0 2.625 1.844 4.912 4.524 4.912 2.704 0 4.498-2.235 4.498-4.86v-.052zm-17.398 25.112c-1.829 0-3.056-1.446-3.056-3.117v-.017c0-1.671 1.244-3.135 3.073-3.135s3.056 1.447 3.056 3.118v.017c0 1.671-1.245 3.134-3.073 3.134zm2.369-3.134c0-1.377-.995-2.502-2.369-2.502s-2.353 1.108-2.353 2.485v.017c0 1.376.996 2.502 2.37 2.502 1.373 0 2.352-1.108 2.352-2.485v-.017zm-15.503-31.073h4.902v13.773h8.568v4.417h-13.47v-18.19zm-6.684 34.207c-1.888 0-3.055-1.385-3.055-3.117v-.017c0-1.663 1.21-3.135 3.013-3.135 1.013 0 1.64.294 2.24.806l-.437.519c-.464-.406-.979-.692-1.828-.692-1.332 0-2.285 1.134-2.285 2.485v.017c0 1.445.919 2.52 2.379 2.52.687 0 1.322-.269 1.734-.606v-1.508h-1.828v-.614h2.48v2.416a3.625 3.625 0 01-2.413.926zm-11.415-34.207h4.903v13.773h8.567v4.417h-13.47v-18.19zm-6.141 28.043h.679v5.428h3.382v.633h-4.061v-6.061zm-13.247-28.043h14.229v4.287h-9.376v2.755h8.491v3.976h-8.491v2.884h9.502v4.288h-14.355v-18.19zm-6.537 29.134v4.97h-.661v-6.061h.636l3.786 4.857v-4.857h.661v6.061h-.541l-3.881-4.97zm-5.774-15.18c1.845 0 2.931-.883 3.993-2.208l3.69 2.702c-1.668 2.365-3.918 4.106-7.835 4.106-5.054 0-9.123-3.976-9.123-9.407v-.052c0-5.301 3.968-9.459 9.325-9.459 3.614 0 5.939 1.559 7.506 3.794l-3.69 2.936c-1.01-1.299-2.173-2.131-3.866-2.131-2.476 0-4.22 2.157-4.22 4.808v.052c0 2.729 1.744 4.859 4.22 4.859zm-11.499 14.089h.677v6.061h-.677v-6.061zm-7.862-28.043h4.929v18.19h-4.929v-18.19zm3.091 28.674h-2.018v5.43h-.686v-5.43h-2.018v-.631h4.722v.631zm-13.178-10.484h-4.903V16.081h-5.307v-4.417h15.517v4.417h-5.307v13.773zm-6.364 14.71v-4.857h.661v6.061h-.541l-3.881-4.97v4.97h-.661v-6.061h.636l3.786 4.857zM99.476 19.875v9.979h-4.852v-18.19h4.574l7.278 9.615v-9.615h4.852v18.19h-4.296l-7.556-9.979zm-9.61 25.893h-.686v-5.43h-2.018v-.631h4.722v.631h-2.018v5.43zm-9.88-15.55c-5.459 0-9.502-4.184-9.502-9.407v-.052c0-5.224 4.094-9.459 9.553-9.459 5.459 0 9.502 4.183 9.502 9.407v.052c0 5.223-4.095 9.459-9.553 9.459zm4.549-9.459c0-2.625-1.845-4.912-4.549-4.912-2.679 0-4.473 2.235-4.473 4.86v.052c0 2.625 1.845 4.912 4.524 4.912 2.704 0 4.498-2.235 4.498-4.86v-.052zm-16.488 33.01l-.371.22L36.367.225l.37-.219 9.885 16.975v-5.317h5.181l4.22 7.042 4.22-7.042h5.181v18.19h-4.877V19.407l-4.524 7.121h-.101l-4.498-7.069v5.766l16.623 28.544zM30.983 12.958l20.555 35.19-28.619.252 2.322-5.609 16.649-.147-10.81-18.508-13.641 24.313L0 48.602 25.747 3.835l3.229 5.526L9.671 42.928l4.52-.04 16.792-29.93zm41.189 32.81h-.678v-6.061h.678v6.061zm9.619-1.204v-4.857h.661v6.061h-.541l-3.881-4.97v4.97h-.661v-6.061h.636l3.786 4.857zm19.148-4.234h-3.666v2.069h3.279v.623h-3.279v2.121h3.708v.625h-4.387v-6.061h4.345v.623zm9.139-.017c.291.294.463.719.463 1.194v.017c0 1.005-.687 1.594-1.63 1.767l1.845 2.477h-.833l-1.742-2.356h-1.717v2.356h-.679v-6.061h2.585c.738 0 1.33.225 1.708.606zm-3.614.025v2.46h1.845c.902 0 1.545-.468 1.545-1.247v-.018c0-.745-.566-1.195-1.536-1.195h-1.854zm22.049-.675l2.739 6.105h-.73l-.704-1.603h-3.271l-.713 1.603h-.695l2.739-6.105h.635zm1.039 3.888l-1.365-3.091-1.374 3.091h2.739zm23.298-3.949c1.829 0 3.056 1.447 3.056 3.118v.017c0 1.671-1.245 3.134-3.074 3.134-1.829 0-3.056-1.446-3.056-3.117v-.017c0-1.671 1.245-3.135 3.074-3.135zm-2.37 3.135c0 1.376.996 2.502 2.37 2.502 1.373 0 2.352-1.108 2.352-2.485v-.017c0-1.377-.996-2.502-2.37-2.502-1.373 0-2.352 1.108-2.352 2.485v.017zm23.381-3.074l2.738 6.105h-.729l-.704-1.603h-3.271l-.713 1.603h-.695l2.738-6.105h.636zm1.039 3.888l-1.366-3.091-1.373 3.091h2.739zm35.554-3.238c.292.294.464.719.464 1.194v.017c0 1.005-.687 1.594-1.631 1.767l1.845 2.477h-.833l-1.742-2.356h-1.717v2.356h-.679v-6.061h2.585c.738 0 1.33.225 1.708.606zm-3.614.025v2.46h1.845c.902 0 1.546-.468 1.546-1.247v-.018c0-.745-.567-1.195-1.537-1.195h-1.854zm20.289 2.849c0 1.307.687 2.043 1.837 2.043 1.108 0 1.812-.676 1.812-2v-3.523h.678v3.472c0 1.766-1.004 2.683-2.507 2.683-1.485 0-2.498-.917-2.498-2.632v-3.523h.678v3.48z"/></svg><svg viewBox="0 0 32 32" id="twitter" xmlns="http://www.w3.org/2000/svg"><path d="M32 7.075a12.941 12.941 0 01-3.769 1.031 6.601 6.601 0 002.887-3.631 13.21 13.21 0 01-4.169 1.594A6.565 6.565 0 0022.155 4a6.563 6.563 0 00-6.563 6.563c0 .512.056 1.012.169 1.494A18.635 18.635 0 012.23 5.195a6.56 6.56 0 00-.887 3.3 6.557 6.557 0 002.919 5.463 6.565 6.565 0 01-2.975-.819v.081a6.565 6.565 0 005.269 6.437 6.574 6.574 0 01-2.968.112 6.588 6.588 0 006.131 4.563 13.17 13.17 0 01-9.725 2.719 18.568 18.568 0 0010.069 2.95c12.075 0 18.681-10.006 18.681-18.681 0-.287-.006-.569-.019-.85A13.216 13.216 0 0032 7.076z"/></svg></svg>